<?xml version="1.0" ?><!DOCTYPE svg  PUBLIC '-//W3C//DTD SVG 1.1//EN'  'http://www.w3.org/Graphics/SVG/1.1/DTD/svg11.dtd'><svg enable-background="new 0 0 48 48" height="48px" id="Layer_3" version="1.1" viewBox="0 0 48 48" width="48px" xml:space="preserve" xmlns="http://www.w3.org/2000/svg" xmlns:xlink="http://www.w3.org/1999/xlink"><g><path d="M30.012,6.005c-7.191,0-13.024,5.787-13.115,12.957l-0.008-0.017c0,0-0.015,0.658,0.08,1.75   c0.029,0.157,0.577,3.12,1.71,5.32c0.001,0.001,0.001,0.001,0.002,0.002L30.012,48l10.869-20.997c0,0,1.565-3.365,1.929-5.21   c0.011-0.067,0.021-0.134,0.032-0.201c0.008-0.048,0.017-0.101,0.022-0.147c0.185-1.24,0.235-2.313,0.249-2.756   C42.88,11.646,37.112,6.005,30.012,6.005z" fill="#241F20"/><path d="M19.888,40l-9.613-19.398c-0.001,0-0.001-0.001-0.002-0.002c-0.909-1.836-1.289-4.217-1.289-4.217   c-0.023-0.186-0.04-0.371-0.055-0.558c-0.045-0.544-0.041-0.826-0.041-0.826C8.888,8.925,13.812,4,19.888,4   c1.318,0,2.577,0.244,3.747,0.669c1.739-0.786,3.647-1.253,5.657-1.346C26.722,1.245,23.452,0,19.888,0   c-8.22,0-14.887,6.614-14.99,14.81l-0.01-0.019c0,0-0.017,0.752,0.092,2c0.033,0.18,0.66,3.566,1.955,6.081   c0.001,0.001,0.001,0.001,0.002,0.002L19.888,48l3.774-7.292l-2.113-4.101L19.888,40z" fill="#241F20"/></g></svg>